<?xml version="1.0" standalone="no"?>
<!DOCTYPE svg PUBLIC "-//W3C//DTD SVG 20010904//EN"
 "http://www.w3.org/TR/2001/REC-SVG-20010904/DTD/svg10.dtd">
<svg version="1.0" xmlns="http://www.w3.org/2000/svg"
 width="256.000000pt" height="256.000000pt" viewBox="0 0 256.000000 256.000000"
 preserveAspectRatio="xMidYMid meet">
<metadata>
Created by potrace 1.16, written by Peter Selinger 2001-2019
</metadata>
<g transform="translate(0.000000,256.000000) scale(0.100000,-0.100000)"
fill="#000000" stroke="none">
<path d="M1395 2236 c-76 -16 -164 -45 -235 -78 -49 -23 -179 -104 -195 -122
-5 -6 -28 -26 -49 -45 -89 -76 -170 -190 -231 -327 -56 -123 -56 -134 -10
-134 l35 0 0 -64 c0 -73 -8 -83 -65 -88 -28 -2 -41 -8 -43 -20 -3 -14 6 -17
50 -20 l53 -3 0 -60 0 -60 -50 -5 c-39 -4 -51 -9 -54 -25 -2 -11 -10 -24 -18
-30 -10 -8 -13 -28 -11 -75 3 -65 3 -65 34 -68 28 -3 32 -8 48 -58 67 -212
259 -436 471 -548 275 -147 637 -147 909 -1 205 110 367 288 453 495 17 41 41
119 53 173 31 135 25 329 -15 462 -102 340 -337 577 -675 681 -71 21 -109 26
-235 30 -103 2 -172 -1 -220 -10z m373 -205 c4 -75 -1 -81 -75 -81 -59 0 -73
14 -73 72 0 74 5 79 79 76 l66 -3 3 -64z m-13 -191 l0 -65 -60 0 -60 0 -3 54
c-5 79 -2 82 65 79 l58 -3 0 -65z m244 -296 c24 -5 31 -12 31 -30 0 -21 -5
-24 -38 -24 -56 0 -82 -23 -82 -71 l0 -39 55 0 c52 0 55 -1 55 -25 0 -24 -3
-25 -55 -25 l-54 0 -3 -157 -3 -158 -35 0 -35 0 -3 158 -3 157 -24 0 c-20 0
-25 5 -25 25 0 20 5 25 24 25 20 0 25 6 30 45 9 54 46 101 89 114 42 12 40 12
76 5z m149 -267 l2 -268 -37 3 -38 3 -3 255 c-1 140 0 261 3 268 3 8 17 12 37
10 l33 -3 3 -268z m-1060 236 c3 -22 1 -22 -125 -25 l-128 -3 0 -85 0 -85 108
-3 c98 -2 107 -4 107 -22 0 -18 -9 -20 -107 -22 l-108 -3 0 -100 0 -100 133
-3 132 -3 0 -24 0 -25 -170 0 -170 0 0 258 c0 142 3 262 7 266 4 3 77 5 162 4
153 -3 156 -3 159 -25z m352 6 c104 -22 160 -108 160 -244 0 -91 -21 -149 -71
-196 -44 -41 -82 -50 -226 -56 l-133 -6 0 257 0 256 110 0 c60 0 132 -5 160
-11z m853 -261 c24 -68 50 -140 58 -160 7 -21 16 -38 19 -38 4 0 30 72 60 160
l53 160 33 0 c38 0 39 -2 23 -33 -7 -11 -18 -42 -25 -67 -32 -115 -154 -452
-174 -479 -31 -45 -60 -61 -107 -61 -42 0 -43 0 -43 35 0 30 3 35 24 35 46 0
73 18 95 62 11 25 21 53 21 64 0 11 -34 113 -75 227 -41 115 -75 210 -75 213
0 2 15 4 34 4 l34 0 45 -122z"/>
<path d="M1238 1494 c-5 -4 -8 -104 -8 -222 l0 -214 98 4 c117 4 156 23 190
91 31 63 31 182 0 245 -35 69 -78 92 -184 99 -49 3 -92 2 -96 -3z"/>
<path d="M197 1154 c-12 -12 -8 -119 5 -132 7 -7 38 -12 70 -12 66 0 72 8 66
96 l-3 49 -65 3 c-36 2 -69 0 -73 -4z"/>
<path d="M384 1147 c-3 -8 -4 -41 -2 -73 l3 -59 65 0 65 0 0 70 0 70 -63 3
c-46 2 -64 -1 -68 -11z"/>
</g>
</svg>
